<svg width="24" height="24" viewBox="0 0 24 24" fill="none" xmlns="http://www.w3.org/2000/svg">
<path fill-rule="evenodd" clip-rule="evenodd" d="M7.5 3.75C6.50544 3.75 5.55161 4.14509 4.84835 4.84835C4.14509 5.55161 3.75 6.50544 3.75 7.5V16.504C3.75 17.4975 4.14467 18.4503 4.84718 19.1528C5.54969 19.8553 6.5025 20.25 7.496 20.25H16.504C17.4974 20.25 18.45 19.8554 19.1525 19.1531C19.855 18.4508 20.2497 17.4983 20.25 16.505C20.25 16.5049 20.25 16.5051 20.25 16.505V7.496C20.25 7.00407 20.1531 6.51695 19.9649 6.06247C19.7766 5.60798 19.5007 5.19503 19.1528 4.84718C18.805 4.49933 18.392 4.2234 17.9375 4.03515C17.483 3.84689 16.9959 3.75 16.504 3.75H7.5ZM7.5 2.25C6.10761 2.25 4.77226 2.80312 3.78769 3.78769C2.80312 4.77226 2.25 6.10761 2.25 7.5V16.504C2.25 17.8953 2.8027 19.2297 3.78652 20.2135C4.77033 21.1973 6.10467 21.75 7.496 21.75H16.504C17.8951 21.75 19.2293 21.1975 20.2131 20.2139C21.1969 19.2303 21.7497 17.8963 21.75 16.5052V7.496C21.75 6.80709 21.6143 6.12492 21.3507 5.48844C21.087 4.85197 20.7006 4.27365 20.2135 3.78652C19.7263 3.29938 19.148 2.91296 18.5116 2.64933C17.8751 2.38569 17.1929 2.25 16.504 2.25H7.5Z" fill="#858585"/>
<path fill-rule="evenodd" clip-rule="evenodd" d="M8.12012 10.35C8.53433 10.35 8.87012 10.6858 8.87012 11.1V16.5C8.87012 16.9142 8.53433 17.25 8.12012 17.25C7.7059 17.25 7.37012 16.9142 7.37012 16.5V11.1C7.37012 10.6858 7.7059 10.35 8.12012 10.35Z" fill="#858585"/>
<path fill-rule="evenodd" clip-rule="evenodd" d="M13.969 11.85C13.5712 11.85 13.1896 12.0081 12.9083 12.2894C12.627 12.5707 12.469 12.9522 12.469 13.35V16.5C12.469 16.9142 12.1332 17.25 11.719 17.25C11.3048 17.25 10.969 16.9142 10.969 16.5V13.35C10.969 12.5544 11.2851 11.7913 11.8477 11.2287C12.4103 10.6661 13.1733 10.35 13.969 10.35C14.7646 10.35 15.5277 10.6661 16.0903 11.2287C16.6529 11.7913 16.969 12.5544 16.969 13.35V16.5C16.969 16.9142 16.6332 17.25 16.219 17.25C15.8048 17.25 15.469 16.9142 15.469 16.5V13.35C15.469 12.9522 15.311 12.5707 15.0297 12.2894C14.7483 12.0081 14.3668 11.85 13.969 11.85Z" fill="#858585"/>
<path fill-rule="evenodd" clip-rule="evenodd" d="M8.11471 7.08802C8.24312 7.08745 8.37037 7.11225 8.48916 7.16099C8.60794 7.20973 8.71594 7.28146 8.80694 7.37206C8.89794 7.46266 8.97015 7.57033 9.01941 7.6889C9.06868 7.80748 9.09404 7.93461 9.09404 8.06302C9.09404 8.25568 9.03696 8.44401 8.93002 8.60425C8.82308 8.76449 8.67106 8.88946 8.49315 8.96338C8.31524 9.03731 8.11942 9.05686 7.93042 9.01959C7.74141 8.98232 7.56767 8.88989 7.43114 8.75397C7.29462 8.61804 7.20142 8.44472 7.16331 8.25588C7.1252 8.06703 7.14389 7.87113 7.21702 7.6929C7.29015 7.51467 7.41445 7.3621 7.57421 7.25444C7.73398 7.14679 7.92206 7.08888 8.11471 7.08802Z" fill="#858585"/>
</svg>
