<svg width="24" height="24" viewBox="0 0 24 24" fill="none" xmlns="http://www.w3.org/2000/svg">
<path fill-rule="evenodd" clip-rule="evenodd" d="M4.84799 4.10152C5.10639 4.11808 5.33797 4.26677 5.46059 4.49483C6.34993 6.14899 7.89064 7.65653 9.55682 8.35025C9.75872 7.28224 10.2345 6.33375 10.9521 5.60042C11.8857 4.64643 13.1869 4.09998 14.7 4.09998C15.6994 4.09998 16.5426 4.29107 17.2551 4.67131C17.84 4.98343 18.3054 5.40631 18.686 5.89998H21C21.2766 5.89998 21.5307 6.05222 21.6613 6.29609C21.7918 6.53995 21.7775 6.83586 21.624 7.066L19.9485 9.57936C19.9057 12.7724 18.9671 15.5775 17.1749 17.6087C15.3296 19.7 12.6407 20.9 9.30001 20.9C7.35543 20.9 5.9411 20.388 4.83816 19.6076C3.75813 18.8433 3.01928 17.848 2.39435 16.9923C2.24132 16.7828 2.20745 16.5091 2.3048 16.2686C2.39166 16.054 2.57198 15.8931 2.79145 15.8295L2.80469 15.8253L2.88988 15.7975C2.96458 15.7729 3.07043 15.7378 3.19749 15.6955C3.45141 15.6111 3.78755 15.4989 4.12315 15.3868C4.21412 15.3564 4.30503 15.326 4.39421 15.2962C1.87614 12.0435 1.86531 7.66064 4.19019 4.41338C4.34092 4.20284 4.58959 4.08495 4.84799 4.10152ZM5.93826 16.3611L5.52031 16.5011C5.26938 16.5851 4.93446 16.6972 4.59861 16.8094C4.47412 16.851 4.34945 16.8927 4.22886 16.9329C4.66397 17.4784 5.12895 17.9758 5.7046 18.3831C6.53741 18.9724 7.64459 19.4 9.30001 19.4C12.2593 19.4 14.5204 18.3499 16.0501 16.6163C17.5901 14.871 18.45 12.3619 18.45 9.34998C18.45 9.20191 18.4938 9.05716 18.576 8.93396L19.5986 7.39998H18.3C18.0479 7.39998 17.8126 7.27328 17.6738 7.06275C17.3617 6.58933 17.0003 6.23555 16.5489 5.99465C16.0959 5.75289 15.5057 5.59998 14.7 5.59998C13.5621 5.59998 12.6564 6.00353 12.0242 6.64954C11.388 7.29965 10.9872 8.23878 10.9496 9.37477C10.9421 9.60039 10.8334 9.81065 10.6537 9.9472C10.4739 10.0838 10.2422 10.1321 10.0229 10.0788C7.94982 9.57493 6.06068 8.04598 4.80647 6.27785C3.35742 9.11854 3.78375 12.6462 6.23322 15.1226C6.41536 15.3067 6.4896 15.5718 6.42961 15.8237C6.36961 16.0757 6.18384 16.2788 5.93826 16.3611Z" fill="#858585"/>
</svg>
