<svg width="18" height="20" viewBox="0 0 20 20" fill="none" xmlns="http://www.w3.org/2000/svg">
<path d="M8.85602 11.1441C7.7494 10.0479 6.85503 8.75649 6.21802 7.33506C6.15943 7.19649 6.14393 7.04348 6.17354 6.89597C6.20315 6.74846 6.2765 6.61329 6.38402 6.50806L7.20302 5.69006C7.87402 5.01906 7.87402 4.07006 7.28802 3.48406L6.11402 2.31006C5.73897 1.93512 5.23035 1.72449 4.70002 1.72449C4.1697 1.72449 3.66108 1.93512 3.28602 2.31006L2.63402 2.96206C1.89302 3.70306 1.58402 4.77206 1.78402 5.83206C2.27802 8.44506 3.79602 11.3061 6.24502 13.7551C8.69402 16.2041 11.555 17.7221 14.168 18.2161C15.228 18.4161 16.297 18.1071 17.038 17.3661L17.689 16.7151C18.064 16.34 18.2746 15.8314 18.2746 15.3011C18.2746 14.7707 18.064 14.2621 17.689 13.8871L16.516 12.7141C16.2347 12.4329 15.8533 12.2749 15.4555 12.2749C15.0578 12.2749 14.6763 12.4329 14.395 12.7141L13.492 13.6181C13.3868 13.7256 13.2516 13.7989 13.1041 13.8285C12.9566 13.8582 12.8036 13.8427 12.665 13.7841C11.2437 13.1459 9.95243 12.2509 8.85602 11.1441V11.1441Z" stroke="#D6D6D6" stroke-width="1.5" stroke-linecap="round" stroke-linejoin="round"/>
</svg>
