<svg width="19" height="18" viewBox="0 0 19 18" fill="none" xmlns="http://www.w3.org/2000/svg">
<path fill-rule="evenodd" clip-rule="evenodd" d="M3.29133 3.52781C3.43374 3.35208 3.64784 3.25 3.87403 3.25H16.5C17.6393 3.25 18.4739 4.31984 18.1976 5.4249L16.8496 10.8169C16.5679 11.9425 15.6109 12.7707 14.4557 12.8863C14.4557 12.8863 14.4557 12.8863 14.4557 12.8863L7.6397 13.5683C6.24376 13.707 4.9657 12.7742 4.67531 11.4014C4.67529 11.4013 4.67533 11.4015 4.67531 11.4014L3.14031 4.15543C3.09344 3.93416 3.14893 3.70354 3.29133 3.52781ZM4.79955 4.75L6.14275 11.0906C6.27445 11.7135 6.85459 12.1387 7.49036 12.0757L14.3064 11.3937C14.8311 11.3413 15.2661 10.9654 15.3944 10.4531C15.3944 10.453 15.3944 10.4532 15.3944 10.4531L16.7424 5.0611C16.7822 4.90216 16.6628 4.75 16.5 4.75H4.79955Z" fill="white"/>
<path fill-rule="evenodd" clip-rule="evenodd" d="M0.75 1C0.75 0.585786 1.08579 0.25 1.5 0.25H3.224C3.57701 0.25 3.88224 0.496177 3.95699 0.841185L4.60699 3.84118C4.6947 4.24601 4.43764 4.64528 4.03282 4.73299C3.62799 4.8207 3.22872 4.56364 3.14101 4.15882L2.6191 1.75H1.5C1.08579 1.75 0.75 1.41421 0.75 1Z" fill="white"/>
<path fill-rule="evenodd" clip-rule="evenodd" d="M6.69703 15.5171C6.0847 15.5171 5.58089 16.0131 5.58301 16.6331C5.58092 17.2554 6.08702 17.7501 6.69803 17.7501C7.31424 17.7501 7.81403 17.2503 7.81403 16.6341C7.81403 16.0169 7.31424 15.5171 6.69703 15.5171ZM7.083 16.6331L7.08299 16.6336V16.6325L7.083 16.6331ZM15.114 15.5171C14.5017 15.5171 13.9979 16.0131 14 16.6331C13.9979 17.2554 14.504 17.7501 15.115 17.7501C15.7313 17.7501 16.231 17.2503 16.231 16.6341C16.231 16.0169 15.7313 15.5171 15.114 15.5171ZM15.5 16.6331L15.5 16.6336V16.6325L15.5 16.6331Z" fill="white"/>
</svg>
