<svg width="156" height="120" viewBox="0 0 156 120" fill="none" xmlns="http://www.w3.org/2000/svg">
<g clip-path="url(#clip0_1854_23938)">
<path d="M64 20.766V9.99997C64.0002 9.62865 64.1038 9.26471 64.2991 8.94892C64.4944 8.63313 64.7738 8.37795 65.106 8.21197L69.106 6.21197C69.4108 6.05964 69.7495 5.98773 70.09 6.00306C70.4304 6.0184 70.7613 6.12046 71.0512 6.29958C71.3411 6.4787 71.5805 6.72892 71.7465 7.02651C71.9126 7.3241 71.9998 7.65919 72 7.99997V20.764" stroke="#68D237" stroke-width="1.5" stroke-linecap="round" stroke-linejoin="round"/>
<path d="M64 20.766H72C72.5304 20.766 73.0391 20.9767 73.4142 21.3518C73.7893 21.7268 74 22.2356 74 22.766V38C74 39.0609 73.5786 40.0783 72.8284 40.8284C72.0783 41.5786 71.0609 42 70 42H66C64.9391 42 63.9217 41.5786 63.1716 40.8284C62.4214 40.0783 62 39.0609 62 38V22.766C62 22.2356 62.2107 21.7268 62.5858 21.3518C62.9609 20.9767 63.4696 20.766 64 20.766Z" stroke="#ADADAD" stroke-width="1.5" stroke-linecap="round" stroke-linejoin="round"/>
<path d="M86 24H90C91.0609 24 92.0783 24.4214 92.8284 25.1716C93.5786 25.9217 94 26.9391 94 28V40C94 40.5304 93.7893 41.0391 93.4142 41.4142C93.0391 41.7893 92.5304 42 92 42H84C83.4696 42 82.9609 41.7893 82.5858 41.4142C82.2107 41.0391 82 40.5304 82 40V28C82 26.9391 82.4214 25.9217 83.1716 25.1716C83.9217 24.4214 84.9391 24 86 24V24Z" stroke="#ADADAD" stroke-width="1.5" stroke-linecap="round" stroke-linejoin="round"/>
<path d="M74 30H62" stroke="black" stroke-width="1.5" stroke-linecap="round" stroke-linejoin="round"/>
</g>
<path d="M48.2776 94.724C48.0496 95.492 47.6896 96.134 47.1976 96.65C46.7056 97.166 46.1236 97.55 45.4516 97.802C44.7796 98.054 44.0416 98.18 43.2376 98.18C42.0616 98.18 41.0416 97.934 40.1776 97.442C39.3256 96.95 38.6656 96.248 38.1976 95.336C37.7416 94.424 37.5136 93.332 37.5136 92.06C37.5136 90.788 37.7416 89.696 38.1976 88.784C38.6656 87.872 39.3256 87.17 40.1776 86.678C41.0416 86.186 42.0496 85.94 43.2016 85.94C44.0176 85.94 44.7556 86.054 45.4156 86.282C46.0756 86.498 46.6336 86.834 47.0896 87.29C47.5576 87.746 47.8996 88.322 48.1156 89.018L45.8656 89.972C45.6616 89.252 45.3496 88.742 44.9296 88.442C44.5096 88.13 43.9696 87.974 43.3096 87.974C42.6616 87.974 42.0916 88.13 41.5996 88.442C41.1196 88.754 40.7476 89.216 40.4836 89.828C40.2196 90.428 40.0876 91.172 40.0876 92.06C40.0876 92.936 40.2076 93.68 40.4476 94.292C40.6996 94.904 41.0656 95.366 41.5456 95.678C42.0256 95.99 42.6136 96.146 43.3096 96.146C43.9576 96.146 44.5156 95.972 44.9836 95.624C45.4636 95.276 45.7996 94.748 45.9916 94.04L48.2776 94.724ZM54.2467 88.82C55.1587 88.82 55.9567 89.006 56.6407 89.378C57.3367 89.75 57.8767 90.284 58.2607 90.98C58.6567 91.676 58.8547 92.516 58.8547 93.5C58.8547 94.472 58.6567 95.312 58.2607 96.02C57.8767 96.716 57.3367 97.25 56.6407 97.622C55.9567 97.994 55.1587 98.18 54.2467 98.18C53.3467 98.18 52.5487 97.994 51.8527 97.622C51.1567 97.25 50.6107 96.716 50.2147 96.02C49.8307 95.312 49.6387 94.472 49.6387 93.5C49.6387 92.516 49.8307 91.676 50.2147 90.98C50.6107 90.284 51.1567 89.75 51.8527 89.378C52.5487 89.006 53.3467 88.82 54.2467 88.82ZM54.2467 90.656C53.7907 90.656 53.4007 90.764 53.0767 90.98C52.7647 91.184 52.5247 91.496 52.3567 91.916C52.1887 92.336 52.1047 92.864 52.1047 93.5C52.1047 94.136 52.1887 94.664 52.3567 95.084C52.5247 95.504 52.7647 95.822 53.0767 96.038C53.4007 96.242 53.7907 96.344 54.2467 96.344C54.6907 96.344 55.0687 96.242 55.3807 96.038C55.7047 95.822 55.9507 95.504 56.1187 95.084C56.2867 94.664 56.3707 94.136 56.3707 93.5C56.3707 92.864 56.2867 92.336 56.1187 91.916C55.9507 91.496 55.7047 91.184 55.3807 90.98C55.0687 90.764 54.6907 90.656 54.2467 90.656ZM64.5181 98.18C63.6061 98.18 62.7721 98.018 62.0161 97.694C61.2721 97.37 60.6661 96.914 60.1981 96.326L61.6201 94.886C61.9081 95.318 62.2921 95.672 62.7721 95.948C63.2521 96.224 63.8221 96.362 64.4821 96.362C64.9501 96.362 65.3221 96.296 65.5981 96.164C65.8861 96.02 66.0301 95.798 66.0301 95.498C66.0301 95.306 65.9641 95.144 65.8321 95.012C65.7001 94.868 65.4361 94.754 65.0401 94.67L63.4561 94.346C62.4121 94.13 61.6681 93.806 61.2241 93.374C60.7921 92.93 60.5761 92.36 60.5761 91.664C60.5761 91.172 60.7201 90.71 61.0081 90.278C61.3081 89.846 61.7521 89.498 62.3401 89.234C62.9281 88.958 63.6601 88.82 64.5361 88.82C65.4361 88.82 66.2161 88.964 66.8761 89.252C67.5481 89.528 68.0761 89.942 68.4601 90.494L66.9841 91.934C66.7201 91.514 66.3721 91.196 65.9401 90.98C65.5201 90.752 65.0761 90.638 64.6081 90.638C64.2721 90.638 63.9841 90.674 63.7441 90.746C63.5041 90.818 63.3241 90.92 63.2041 91.052C63.0841 91.172 63.0241 91.328 63.0241 91.52C63.0241 91.712 63.1081 91.88 63.2761 92.024C63.4441 92.156 63.7501 92.27 64.1941 92.366L66.0301 92.744C66.9181 92.924 67.5541 93.23 67.9381 93.662C68.3221 94.082 68.5141 94.592 68.5141 95.192C68.5141 95.768 68.3581 96.284 68.0461 96.74C67.7461 97.184 67.2961 97.538 66.6961 97.802C66.1081 98.054 65.3821 98.18 64.5181 98.18ZM70.4806 98V89H72.6946L72.7846 90.62C73.0846 90.02 73.4926 89.57 74.0086 89.27C74.5366 88.97 75.1186 88.82 75.7546 88.82C76.4026 88.82 76.9846 88.97 77.5006 89.27C78.0286 89.57 78.4246 90.014 78.6886 90.602C78.8806 90.206 79.1386 89.876 79.4626 89.612C79.7866 89.348 80.1466 89.15 80.5426 89.018C80.9386 88.886 81.3406 88.82 81.7486 88.82C82.3366 88.82 82.8706 88.94 83.3506 89.18C83.8426 89.42 84.2326 89.78 84.5206 90.26C84.8086 90.74 84.9526 91.352 84.9526 92.096V98H82.4866V92.582C82.4866 91.922 82.3426 91.454 82.0546 91.178C81.7666 90.902 81.3946 90.764 80.9386 90.764C80.5786 90.764 80.2426 90.854 79.9306 91.034C79.6306 91.214 79.3906 91.484 79.2106 91.844C79.0426 92.192 78.9586 92.63 78.9586 93.158V98H76.4926V92.582C76.4926 91.922 76.3426 91.454 76.0426 91.178C75.7546 90.902 75.3826 90.764 74.9266 90.764C74.6146 90.764 74.3026 90.848 73.9906 91.016C73.6906 91.184 73.4386 91.448 73.2346 91.808C73.0426 92.168 72.9466 92.642 72.9466 93.23V98H70.4806ZM91.6722 98.18C90.7242 98.18 89.8962 97.994 89.1882 97.622C88.4922 97.25 87.9522 96.716 87.5682 96.02C87.1842 95.324 86.9922 94.484 86.9922 93.5C86.9922 92.516 87.1842 91.676 87.5682 90.98C87.9522 90.284 88.4862 89.75 89.1702 89.378C89.8662 89.006 90.6582 88.82 91.5462 88.82C92.4582 88.82 93.2322 89.006 93.8682 89.378C94.5042 89.738 94.9902 90.236 95.3262 90.872C95.6622 91.496 95.8302 92.21 95.8302 93.014C95.8302 93.254 95.8242 93.482 95.8122 93.698C95.8002 93.914 95.7822 94.106 95.7582 94.274H88.5762V92.564H94.6782L93.4902 92.996C93.4902 92.24 93.3162 91.658 92.9682 91.25C92.6322 90.842 92.1522 90.638 91.5282 90.638C91.0722 90.638 90.6762 90.746 90.3402 90.962C90.0162 91.178 89.7702 91.502 89.6022 91.934C89.4342 92.354 89.3502 92.888 89.3502 93.536C89.3502 94.172 89.4402 94.7 89.6202 95.12C89.8122 95.528 90.0762 95.834 90.4122 96.038C90.7602 96.242 91.1742 96.344 91.6542 96.344C92.1822 96.344 92.6082 96.242 92.9322 96.038C93.2562 95.834 93.5082 95.552 93.6882 95.192L95.6502 95.948C95.4582 96.416 95.1642 96.818 94.7682 97.154C94.3842 97.49 93.9222 97.748 93.3822 97.928C92.8542 98.096 92.2842 98.18 91.6722 98.18ZM100.948 86.246V95.066C100.948 95.498 101.056 95.816 101.272 96.02C101.5 96.212 101.806 96.308 102.19 96.308C102.49 96.308 102.754 96.266 102.982 96.182C103.21 96.086 103.414 95.96 103.594 95.804L103.99 97.442C103.702 97.67 103.342 97.85 102.91 97.982C102.478 98.114 102.022 98.18 101.542 98.18C100.942 98.18 100.408 98.09 99.9398 97.91C99.4838 97.73 99.1238 97.442 98.8598 97.046C98.6078 96.65 98.4818 96.122 98.4818 95.462V86.93L100.948 86.246ZM103.828 89V90.836H96.8258V89H103.828ZM106.738 87.704C106.222 87.704 105.838 87.596 105.586 87.38C105.334 87.152 105.208 86.822 105.208 86.39C105.208 85.946 105.334 85.616 105.586 85.4C105.838 85.172 106.222 85.058 106.738 85.058C107.254 85.058 107.638 85.172 107.89 85.4C108.142 85.616 108.268 85.946 108.268 86.39C108.268 86.822 108.142 87.152 107.89 87.38C107.638 87.596 107.254 87.704 106.738 87.704ZM107.962 89V98H105.496V89H107.962ZM114.662 88.82C115.466 88.82 116.144 88.94 116.696 89.18C117.26 89.408 117.71 89.726 118.046 90.134C118.394 90.53 118.64 90.974 118.784 91.466L116.48 92.294C116.36 91.754 116.156 91.346 115.868 91.07C115.58 90.794 115.19 90.656 114.698 90.656C114.242 90.656 113.852 90.764 113.528 90.98C113.204 91.184 112.958 91.502 112.79 91.934C112.622 92.354 112.538 92.882 112.538 93.518C112.538 94.154 112.622 94.682 112.79 95.102C112.97 95.522 113.222 95.834 113.546 96.038C113.882 96.242 114.272 96.344 114.716 96.344C115.076 96.344 115.382 96.284 115.634 96.164C115.886 96.032 116.09 95.846 116.246 95.606C116.414 95.366 116.528 95.078 116.588 94.742L118.82 95.462C118.688 96.002 118.442 96.476 118.082 96.884C117.722 97.292 117.26 97.61 116.696 97.838C116.132 98.066 115.478 98.18 114.734 98.18C113.81 98.18 112.994 97.994 112.286 97.622C111.578 97.25 111.032 96.716 110.648 96.02C110.264 95.324 110.072 94.484 110.072 93.5C110.072 92.516 110.264 91.676 110.648 90.98C111.032 90.284 111.572 89.75 112.268 89.378C112.964 89.006 113.762 88.82 114.662 88.82Z" fill="black"/>
<defs>
<clipPath id="clip0_1854_23938">
<rect width="48" height="48" fill="white" transform="translate(54)"/>
</clipPath>
</defs>
</svg>
