<svg width="48" height="48" viewBox="0 0 48 48" fill="none" xmlns="http://www.w3.org/2000/svg">
<g clip-path="url(#clip0_1889_25648)">
<path d="M30 14H38.646C39.464 14 40.2 14.498 40.502 15.258L43.714 23.286C43.902 23.758 44 24.262 44 24.77V36.666C44 37.1964 43.7893 37.7051 43.4142 38.0802C43.0391 38.4553 42.5304 38.666 42 38.666H38.338" stroke="#ADADAD" stroke-width="1.5" stroke-linecap="round" stroke-linejoin="round"/>
<path d="M44 28H36V20H42.4" stroke="#ADADAD" stroke-width="1.5" stroke-linecap="round" stroke-linejoin="round"/>
<path d="M32 38.8398H16.34" stroke="#ADADAD" stroke-width="1.5" stroke-linecap="round" stroke-linejoin="round"/>
<path d="M25.112 10H28C28.5304 10 29.0391 10.2107 29.4142 10.5858C29.7893 10.9609 30 11.4696 30 12V30H4" stroke="#ADADAD" stroke-width="1.5" stroke-linecap="round" stroke-linejoin="round"/>
<path d="M10 38.832H6C5.46957 38.832 4.96086 38.6213 4.58579 38.2462C4.21071 37.8711 4 37.3624 4 36.832V12C4 11.4696 4.21071 10.9609 4.58579 10.5858C4.96086 10.2107 5.46957 10 6 10H8.476" stroke="#ADADAD" stroke-width="1.5" stroke-linecap="round" stroke-linejoin="round"/>
<path d="M37.408 36.5919C37.7021 36.8861 37.9355 37.2353 38.0947 37.6196C38.2539 38.004 38.3358 38.4159 38.3358 38.8319C38.3358 39.2479 38.2539 39.6598 38.0947 40.0442C37.9355 40.4285 37.7021 40.7777 37.408 41.0719C37.1138 41.3661 36.7646 41.5994 36.3802 41.7586C35.9959 41.9178 35.584 41.9997 35.168 41.9997C34.752 41.9997 34.34 41.9178 33.9557 41.7586C33.5713 41.5994 33.2221 41.3661 32.928 41.0719C32.6338 40.7777 32.4005 40.4285 32.2413 40.0442C32.0821 39.6598 32.0001 39.2479 32.0001 38.8319C32.0001 38.4159 32.0821 38.004 32.2413 37.6196C32.4005 37.2353 32.6338 36.8861 32.928 36.5919C33.2221 36.2977 33.5713 36.0644 33.9557 35.9052C34.34 35.746 34.752 35.6641 35.168 35.6641C35.584 35.6641 35.9959 35.746 36.3802 35.9052C36.7646 36.0644 37.1138 36.2977 37.408 36.5919" stroke="black" stroke-width="1.5" stroke-linecap="round" stroke-linejoin="round"/>
<path d="M15.408 36.592C15.7021 36.8858 15.9355 37.2348 16.0948 37.6189C16.2541 38.003 16.3362 38.4147 16.3364 38.8305C16.3366 39.2464 16.2549 39.6581 16.0959 40.0424C15.9369 40.4266 15.7039 40.7758 15.41 41.07C15.1161 41.3641 14.7671 41.5975 14.383 41.7568C13.9989 41.9161 13.5872 41.9982 13.1714 41.9984C12.7556 41.9986 12.3438 41.9168 11.9595 41.7579C11.5753 41.5989 11.2261 41.3659 10.932 41.072C10.3379 40.4784 10.0039 39.6732 10.0035 38.8334C10.0032 37.9936 10.3364 37.188 10.93 36.594C11.5235 35.9999 12.3288 35.6659 13.1686 35.6655C14.0083 35.6652 14.8139 35.9984 15.408 36.592" stroke="black" stroke-width="1.5" stroke-linecap="round" stroke-linejoin="round"/>
<path d="M16.794 18.636C14.5879 18.636 12.4722 17.7596 10.9122 16.1997C9.35231 14.6398 8.47595 12.5241 8.47595 10.318C8.47595 5.818 12.302 1.996 16.8 2C17.8923 2.0004 18.9738 2.21594 19.9829 2.63432C20.9919 3.0527 21.9087 3.66573 22.6808 4.43841C23.4529 5.21109 24.0653 6.12828 24.4829 7.13761C24.9006 8.14695 25.1153 9.22867 25.115 10.321C25.1146 11.4133 24.899 12.4949 24.4806 13.5039C24.0623 14.513 23.4492 15.4297 22.6765 16.2018C21.9039 16.974 20.9867 17.5863 19.9773 18.004C18.968 18.4216 17.8863 18.6364 16.794 18.636" stroke="black" stroke-width="1.5"/>
<path d="M20.4899 8.47021L15.8679 13.0922L13.0959 10.3182" stroke="#68D237" stroke-width="1.5" stroke-linecap="round" stroke-linejoin="round"/>
</g>
<defs>
<clipPath id="clip0_1889_25648">
<rect width="48" height="48" fill="white"/>
</clipPath>
</defs>
</svg>
