<svg width="16" height="16" viewBox="0 0 16 16" fill="none" xmlns="http://www.w3.org/2000/svg">
<path fill-rule="evenodd" clip-rule="evenodd" d="M5 2.5C4.33696 2.5 3.70107 2.76339 3.23223 3.23223C2.76339 3.70107 2.5 4.33696 2.5 5V11.0027C2.5 11.665 2.76311 12.3002 3.23145 12.7685C3.69979 13.2369 4.335 13.5 4.99733 13.5H11.0027C11.6649 13.5 12.3 13.237 12.7684 12.7687C13.2367 12.3006 13.4998 11.6655 13.5 11.0033C13.5 11.0033 13.5 11.0034 13.5 11.0033V4.99733C13.5 4.66938 13.4354 4.34464 13.3099 4.04165C13.1844 3.73866 13.0004 3.46335 12.7685 3.23145C12.5366 2.99955 12.2613 2.8156 11.9584 2.6901C11.6554 2.5646 11.3306 2.5 11.0027 2.5H5ZM5 1.5C4.07174 1.5 3.1815 1.86875 2.52513 2.52513C1.86875 3.1815 1.5 4.07174 1.5 5V11.0027C1.5 11.9302 1.86847 12.8198 2.52435 13.4757C3.18022 14.1315 4.06978 14.5 4.99733 14.5H11.0027C11.9301 14.5 12.8195 14.1316 13.4754 13.4759C14.1312 12.8202 14.4998 11.9309 14.5 11.0034V4.99733C14.5 4.53806 14.4095 4.08328 14.2338 3.65896C14.058 3.23465 13.8004 2.8491 13.4757 2.52435C13.1509 2.19959 12.7654 1.94198 12.341 1.76622C11.9167 1.59046 11.4619 1.5 11.0027 1.5H5Z" fill="white"/>
<path fill-rule="evenodd" clip-rule="evenodd" d="M6.90002 8.6001C6.90002 8.32396 7.12388 8.1001 7.40002 8.1001H11C11.2762 8.1001 11.5 8.32396 11.5 8.6001C11.5 8.87624 11.2762 9.1001 11 9.1001H7.40002C7.12388 9.1001 6.90002 8.87624 6.90002 8.6001Z" fill="white"/>
<path fill-rule="evenodd" clip-rule="evenodd" d="M8.76484 5.76497C9.19055 5.33926 9.76793 5.1001 10.37 5.1001H11C11.2761 5.1001 11.5 5.32396 11.5 5.6001C11.5 5.87624 11.2761 6.1001 11 6.1001H10.37C10.0332 6.1001 9.71012 6.2339 9.47195 6.47207C9.23378 6.71024 9.09998 7.03327 9.09998 7.3701V14.0001C9.09998 14.2762 8.87612 14.5001 8.59998 14.5001C8.32383 14.5001 8.09998 14.2762 8.09998 14.0001V7.3701C8.09998 6.76806 8.33914 6.19067 8.76484 5.76497Z" fill="white"/>
</svg>
