<svg width="20" height="24" viewBox="0 0 24 24" fill="none" xmlns="http://www.w3.org/2000/svg">
<g clip-path="url(#clip0_32_288)">
<path fill-rule="evenodd" clip-rule="evenodd" d="M3.81778 18.2745H20.1822C20.2657 18.2745 20.3333 18.2043 20.3333 18.1181V5.8831C20.3333 5.79616 20.2651 5.7255 20.1811 5.7255H3.81778C3.73558 5.7255 3.66667 5.79548 3.66667 5.8831V18.1181C3.66666 18.1385 3.67053 18.1597 3.67807 18.1786C3.68561 18.1974 3.69666 18.2146 3.7106 18.229C3.72454 18.2434 3.74109 18.2549 3.75931 18.2627C3.77752 18.2705 3.79807 18.2745 3.81778 18.2745ZM3.81778 20H20.1822C21.1856 20 22 19.158 22 18.1181V5.8831C22 4.8432 21.1856 4 20.1811 4H3.81778C2.81445 4 2 4.8432 2 5.8831V18.1181C1.99985 18.3652 2.04677 18.61 2.13807 18.8384C2.22937 19.0668 2.36326 19.2743 2.53209 19.4491C2.70092 19.6239 2.90136 19.7625 3.12197 19.8571C3.34258 19.9516 3.57902 20.0002 3.81778 20Z" fill="#D6D6D6"/>
<path d="M3.11902 6.07504L10.813 11.578C11.152 11.8206 11.5583 11.9512 11.9752 11.9516C12.3921 11.9519 12.7986 11.822 13.138 11.58L20.876 6.06104" stroke="#D6D6D6" stroke-width="1.5" stroke-linecap="round" stroke-linejoin="round"/>
</g>
<defs>
<clipPath id="clip0_32_288">
<rect width="24" height="24" fill="white"/>
</clipPath>
</defs>
</svg>
