<svg width="40" height="42" viewBox="0 0 40 42" fill="none" xmlns="http://www.w3.org/2000/svg">
<path d="M6 7.5H14" stroke="#68D237" stroke-width="1.5" stroke-linecap="round" stroke-linejoin="round"/>
<path d="M3.47803 18.924L5.76003 20.35C7.0314 21.1449 8.50062 21.5664 10 21.5664C11.4994 21.5664 12.9687 21.1449 14.24 20.35L16.522 18.924" stroke="black" stroke-width="1.5" stroke-linecap="round" stroke-linejoin="round"/>
<path d="M9 1H11C11.5304 1 12.0391 1.21071 12.4142 1.58579C12.7893 1.96086 13 2.46957 13 3V7.17C13 10.986 14.036 14.73 16 18C17.9632 21.2713 19.0002 25.0148 19 28.83V37C19 38.0609 18.5786 39.0783 17.8284 39.8284C17.0783 40.5786 16.0609 41 15 41H5C3.93913 41 2.92172 40.5786 2.17157 39.8284C1.42143 39.0783 1 38.0609 1 37V28.83C1 25.014 2.036 21.27 4 18C5.96323 14.7287 7.00021 10.9852 7 7.17V3C7 2.46957 7.21071 1.96086 7.58579 1.58579C7.96086 1.21071 8.46957 1 9 1Z" stroke="#ADADAD" stroke-width="1.5" stroke-linecap="round" stroke-linejoin="round"/>
<path d="M32 31V41" stroke="black" stroke-width="1.5" stroke-linecap="round" stroke-linejoin="round"/>
<path d="M28 41H36" stroke="black" stroke-width="1.5" stroke-linecap="round" stroke-linejoin="round"/>
<path d="M31.9999 31C30.992 31.0012 29.9958 30.7844 29.0795 30.3645C28.1632 29.9445 27.3486 29.3314 26.6915 28.5672C26.0344 27.8029 25.5503 26.9056 25.2725 25.9367C24.9947 24.9678 24.9297 23.9504 25.0819 22.954L26.9759 10.694C27.1259 9.72 27.9679 9 28.9579 9H35.4819C35.9722 8.99903 36.4457 9.17816 36.8126 9.50336C37.1794 9.82856 37.4141 10.2772 37.4719 10.764L38.9499 23.194C39.0655 24.1748 38.9719 25.1689 38.6753 26.1109C38.3787 27.0528 37.8858 27.9212 37.2291 28.6588C36.5724 29.3964 35.7668 29.9864 34.8655 30.39C33.9641 30.7935 32.9875 31.0014 31.9999 31Z" stroke="#ADADAD" stroke-width="1.5" stroke-linecap="round" stroke-linejoin="round"/>
<path d="M38.22 17H26" stroke="#68D237" stroke-width="1.5" stroke-linecap="round" stroke-linejoin="round"/>
</svg>
