<svg width="48" height="48" viewBox="0 0 48 48" fill="none" xmlns="http://www.w3.org/2000/svg">
<g clip-path="url(#clip0_1854_23643)">
<path d="M16 10.804L14.208 10.206C13.6766 10.0288 13.114 9.96527 12.5565 10.0194C11.999 10.0735 11.4591 10.2441 10.9718 10.5201C10.4844 10.7961 10.0604 11.1714 9.72732 11.6217C9.3942 12.072 9.15936 12.5872 9.038 13.134L6.19 25.948C6.0638 26.5167 6.00009 27.0974 6 27.68V32C6 33.5913 6.63214 35.1174 7.75736 36.2426C8.88258 37.3678 10.4087 38 12 38H14.57C16.0577 37.9999 17.4924 37.4472 18.5956 36.449C19.6988 35.4508 20.3917 34.0783 20.54 32.598L21 28" stroke="#ADADAD" stroke-width="1.5" stroke-linecap="round" stroke-linejoin="round"/>
<path d="M32 10.804L33.792 10.206C34.3234 10.0288 34.886 9.96527 35.4435 10.0194C36.001 10.0735 36.5409 10.2441 37.0282 10.5201C37.5156 10.7961 37.9396 11.1714 38.2727 11.6217C38.6058 12.072 38.8406 12.5872 38.962 13.134L41.81 25.948C41.9363 26.5173 42.0001 27.0988 42 27.682V32C42 33.5913 41.3679 35.1174 40.2426 36.2426C39.1174 37.3678 37.5913 38 36 38H33.43C31.9423 37.9999 30.5076 37.4472 29.4044 36.449C28.3012 35.4508 27.6083 34.0783 27.46 32.598L27 28" stroke="#ADADAD" stroke-width="1.5" stroke-linecap="round" stroke-linejoin="round"/>
<path d="M42 28C39.7177 26.6895 37.1318 25.9999 34.5 25.9999C31.8682 25.9999 29.2823 26.6895 27 28" stroke="black" stroke-width="1.5" stroke-linecap="round" stroke-linejoin="round"/>
<path d="M21 28C18.7177 26.6895 16.1318 25.9999 13.5 25.9999C10.8682 25.9999 8.28233 26.6895 6 28" stroke="black" stroke-width="1.5" stroke-linecap="round" stroke-linejoin="round"/>
<path d="M21 28C21.8655 27.3509 22.9181 27 24 27C25.0819 27 26.1345 27.3509 27 28" stroke="#68D237" stroke-width="1.5" stroke-linecap="round" stroke-linejoin="round"/>
</g>
<defs>
<clipPath id="clip0_1854_23643">
<rect width="48" height="48" fill="white"/>
</clipPath>
</defs>
</svg>
