<svg width="24" height="24" viewBox="0 0 24 24" fill="none" xmlns="http://www.w3.org/2000/svg">
<path fill-rule="evenodd" clip-rule="evenodd" d="M8.24878 6.43677C8.24878 6.02255 8.58457 5.68677 8.99878 5.68677H20.0034C20.4176 5.68677 20.7534 6.02255 20.7534 6.43677C20.7534 6.85098 20.4176 7.18677 20.0034 7.18677H8.99878C8.58457 7.18677 8.24878 6.85098 8.24878 6.43677Z" fill="black"/>
<path fill-rule="evenodd" clip-rule="evenodd" d="M8.24878 12C8.24878 11.5858 8.58457 11.25 8.99878 11.25H20.0034C20.4176 11.25 20.7534 11.5858 20.7534 12C20.7534 12.4142 20.4176 12.75 20.0034 12.75H8.99878C8.58457 12.75 8.24878 12.4142 8.24878 12Z" fill="black"/>
<path fill-rule="evenodd" clip-rule="evenodd" d="M8.24878 17.5635C8.24878 17.1493 8.58457 16.8135 8.99878 16.8135H20.0034C20.4176 16.8135 20.7534 17.1493 20.7534 17.5635C20.7534 17.9777 20.4176 18.3135 20.0034 18.3135H8.99878C8.58457 18.3135 8.24878 17.9777 8.24878 17.5635Z" fill="black"/>
<path fill-rule="evenodd" clip-rule="evenodd" d="M3.2467 6.43673C3.2467 5.74626 3.80644 5.18652 4.49691 5.18652C5.18738 5.18652 5.74712 5.74626 5.74712 6.43673C5.74712 7.1272 5.18738 7.68694 4.49691 7.68694C3.80644 7.68694 3.2467 7.1272 3.2467 6.43673Z" fill="black"/>
<path fill-rule="evenodd" clip-rule="evenodd" d="M3.2467 12C3.2467 11.3095 3.80644 10.7498 4.49691 10.7498C5.18738 10.7498 5.74712 11.3095 5.74712 12C5.74712 12.6904 5.18738 13.2502 4.49691 13.2502C3.80644 13.2502 3.2467 12.6904 3.2467 12Z" fill="black"/>
<path fill-rule="evenodd" clip-rule="evenodd" d="M3.2467 17.5634C3.2467 16.873 3.80644 16.3132 4.49691 16.3132C5.18738 16.3132 5.74712 16.873 5.74712 17.5634C5.74712 18.2539 5.18738 18.8136 4.49691 18.8136C3.80644 18.8136 3.2467 18.2539 3.2467 17.5634Z" fill="black"/>
</svg>
