<svg width="32" height="20" viewBox="0 0 24 24" fill="none" xmlns="http://www.w3.org/2000/svg">
<g clip-path="url(#clip0_19_996)">
<path d="M5.12695 10.045V9.873C5.12695 8.97042 5.30473 8.07669 5.65013 7.24282C5.99553 6.40895 6.50179 5.65127 7.14001 5.01306C7.77823 4.37484 8.5359 3.86858 9.36977 3.52318C10.2036 3.17778 11.0974 3 12 3C12.9025 3 13.7963 3.17778 14.6301 3.52318C15.464 3.86858 16.2217 4.37484 16.8599 5.01306C17.4981 5.65127 18.0044 6.40895 18.3498 7.24282C18.6952 8.07669 18.873 8.97042 18.873 9.873V10.045C18.873 13.506 14.491 18.716 12.725 20.676C12.6337 20.778 12.5219 20.8595 12.397 20.9154C12.2721 20.9712 12.1368 21.0001 12 21.0001C11.8631 21.0001 11.7278 20.9712 11.6029 20.9154C11.478 20.8595 11.3662 20.778 11.275 20.676C9.50895 18.716 5.12695 13.506 5.12695 10.045V10.045Z" stroke="#D6D6D6" stroke-width="1.447" stroke-linecap="round" stroke-linejoin="round"/>
<path d="M10 9.95497C10 10.4854 10.2107 10.9941 10.5858 11.3692C10.9609 11.7443 11.4696 11.955 12 11.955C12.5304 11.955 13.0391 11.7443 13.4142 11.3692C13.7893 10.9941 14 10.4854 14 9.95497V9.91797C14 9.38754 13.7893 8.87883 13.4142 8.50375C13.0391 8.12868 12.5304 7.91797 12 7.91797C11.4696 7.91797 10.9609 8.12868 10.5858 8.50375C10.2107 8.87883 10 9.38754 10 9.91797" stroke="#D6D6D6" stroke-width="1.447" stroke-linecap="round" stroke-linejoin="round"/>
</g>
<defs>
<clipPath id="clip0_19_996">
<rect width="24" height="24" fill="white"/>
</clipPath>
</defs>
</svg>
