<svg width="16" height="16" viewBox="0 0 16 16" fill="none" xmlns="http://www.w3.org/2000/svg">
<g clip-path="url(#clip0_3_2332)">
<path fill-rule="evenodd" clip-rule="evenodd" d="M2.54523 12.1831H13.4549C13.5105 12.1831 13.5556 12.1363 13.5556 12.0788V3.92215C13.5556 3.86419 13.5101 3.81708 13.4541 3.81708H2.54523C2.49043 3.81708 2.44449 3.86373 2.44449 3.92215V12.0788C2.44448 12.0924 2.44706 12.1066 2.45209 12.1191C2.45711 12.1317 2.46448 12.1431 2.47377 12.1528C2.48307 12.1624 2.4941 12.17 2.50625 12.1752C2.51839 12.1804 2.53209 12.1831 2.54523 12.1831ZM2.54523 13.3334H13.4549C14.1237 13.3334 14.6667 12.7721 14.6667 12.0788V3.92215C14.6667 3.22888 14.1237 2.66675 13.4541 2.66675H2.54523C1.87634 2.66675 1.33337 3.22888 1.33337 3.92215V12.0788C1.33328 12.2436 1.36456 12.4068 1.42542 12.559C1.48629 12.7113 1.57555 12.8496 1.6881 12.9662C1.80065 13.0827 1.93428 13.1751 2.08136 13.2381C2.22843 13.3011 2.38606 13.3335 2.54523 13.3334Z" fill="white"/>
<path d="M2.07935 4.0501L7.20868 7.71877C7.43468 7.8805 7.70556 7.96757 7.98347 7.96781C8.26137 7.96804 8.5324 7.88144 8.75868 7.7201L13.9173 4.04077" stroke="white" stroke-width="1.5" stroke-linecap="round" stroke-linejoin="round"/>
</g>
<defs>
<clipPath id="clip0_3_2332">
<rect width="16" height="16" fill="white"/>
</clipPath>
</defs>
</svg>
