<svg width="48" height="48" viewBox="0 0 48 48" fill="none" xmlns="http://www.w3.org/2000/svg">
<g clip-path="url(#clip0_1854_4174)">
<path d="M28.57 15.428H19.428C17.2188 15.428 15.428 17.2188 15.428 19.428V28.57C15.428 30.7791 17.2188 32.57 19.428 32.57H28.57C30.7791 32.57 32.57 30.7791 32.57 28.57V19.428C32.57 17.2188 30.7791 15.428 28.57 15.428Z" stroke="black" stroke-width="1.5" stroke-linecap="round" stroke-linejoin="round"/>
<path d="M20.572 20.572H27.43V27.43H20.572V20.572Z" stroke="#68D237" stroke-width="1.5" stroke-linecap="round" stroke-linejoin="round"/>
<path d="M32 6H16C10.4772 6 6 10.4772 6 16V32C6 37.5228 10.4772 42 16 42H32C37.5228 42 42 37.5228 42 32V16C42 10.4772 37.5228 6 32 6Z" stroke="#ADADAD" stroke-width="1.5" stroke-linecap="round" stroke-linejoin="round"/>
<path d="M36 20H32.572" stroke="black" stroke-width="1.5" stroke-linecap="round" stroke-linejoin="round"/>
<path d="M36 28H32.572" stroke="black" stroke-width="1.5" stroke-linecap="round" stroke-linejoin="round"/>
<path d="M15.428 20H12" stroke="black" stroke-width="1.5" stroke-linecap="round" stroke-linejoin="round"/>
<path d="M15.428 28H12" stroke="black" stroke-width="1.5" stroke-linecap="round" stroke-linejoin="round"/>
<path d="M20 12V15.428" stroke="black" stroke-width="1.5" stroke-linecap="round" stroke-linejoin="round"/>
<path d="M28 12V15.428" stroke="black" stroke-width="1.5" stroke-linecap="round" stroke-linejoin="round"/>
<path d="M20 32.572V36" stroke="black" stroke-width="1.5" stroke-linecap="round" stroke-linejoin="round"/>
<path d="M28 32.572V36" stroke="black" stroke-width="1.5" stroke-linecap="round" stroke-linejoin="round"/>
</g>
<defs>
<clipPath id="clip0_1854_4174">
<rect width="48" height="48" fill="white"/>
</clipPath>
</defs>
</svg>
