<svg width="16" height="16" viewBox="0 0 14 12" fill="none" xmlns="http://www.w3.org/2000/svg">
<path fill-rule="evenodd" clip-rule="evenodd" d="M2.23199 0.734426C2.40426 0.74547 2.55865 0.844592 2.64039 0.996632C3.23329 2.09941 4.26043 3.10443 5.37121 3.56691C5.50581 2.85491 5.82297 2.22258 6.3014 1.73369C6.92377 1.0977 7.79129 0.733401 8.8 0.733401C9.46623 0.733401 10.0284 0.860796 10.5034 1.11429C10.8933 1.32237 11.2036 1.60429 11.4573 1.9334H13C13.1844 1.9334 13.3538 2.03489 13.4408 2.19747C13.5279 2.36005 13.5183 2.55732 13.416 2.71075L12.299 4.38632C12.2704 6.51502 11.6447 8.38508 10.4499 9.73921C9.21972 11.1334 7.42714 11.9334 5.2 11.9334C3.90362 11.9334 2.96073 11.5921 2.22544 11.0718C1.50542 10.5623 1.01286 9.89872 0.596235 9.32831C0.494213 9.18863 0.471632 9.00613 0.536532 8.8458C0.59444 8.70274 0.714653 8.59545 0.860969 8.55311L0.869795 8.55029L0.926584 8.53172C0.976387 8.51533 1.04695 8.49194 1.13166 8.46378C1.30094 8.4075 1.52503 8.3327 1.74877 8.25793C1.80942 8.23766 1.87002 8.2174 1.92948 8.19752C0.250757 6.02906 0.243537 3.10717 1.79346 0.942334C1.89395 0.801977 2.05973 0.723381 2.23199 0.734426ZM2.95884 8.9075L2.68021 9.00082C2.51292 9.05682 2.28964 9.13154 2.06574 9.20637C1.98274 9.2341 1.89963 9.26187 1.81924 9.2887C2.10932 9.65232 2.4193 9.98394 2.80306 10.2555C3.35827 10.6484 4.09639 10.9334 5.2 10.9334C7.17287 10.9334 8.68029 10.2334 9.70009 9.07759C10.7267 7.91406 11.3 6.24138 11.3 4.2334C11.3 4.13469 11.3292 4.03819 11.384 3.95605L12.0657 2.9334H11.2C11.0319 2.9334 10.8751 2.84893 10.7825 2.70858C10.5745 2.39297 10.3335 2.15711 10.0326 1.99651C9.73058 1.83534 9.33711 1.7334 8.8 1.7334C8.04139 1.7334 7.43757 2.00243 7.01611 2.43311C6.59198 2.86652 6.32478 3.4926 6.29973 4.24993C6.29476 4.40034 6.2223 4.54051 6.10246 4.63155C5.98263 4.72258 5.82816 4.7548 5.68192 4.71926C4.29988 4.38337 3.04045 3.36406 2.20432 2.18532C1.23828 4.07911 1.5225 6.43087 3.15548 8.08178C3.2769 8.20454 3.3264 8.38126 3.2864 8.54922C3.24641 8.71719 3.12256 8.85264 2.95884 8.9075Z" fill="white"/>
</svg>
