<svg width="24" height="24" viewBox="0 0 24 24" fill="none" xmlns="http://www.w3.org/2000/svg">
<path fill-rule="evenodd" clip-rule="evenodd" d="M9.25 4C9.25 3.58579 9.58579 3.25 10 3.25H14C14.4641 3.25 14.9092 3.43438 15.2374 3.76256C15.5656 4.09075 15.75 4.53587 15.75 5V6.25H19.323C20.038 6.25 20.6825 6.68512 20.9476 7.35111L21.8856 9.69546C21.8932 9.71264 21.9003 9.73017 21.9066 9.74801L22.5538 11.3655C22.6824 11.6886 22.75 12.0346 22.75 12.385V14V18.333C22.75 18.7971 22.5656 19.2422 22.2374 19.5704C21.9092 19.8986 21.4641 20.083 21 20.083H19.8206C19.7978 20.1596 19.771 20.2351 19.7403 20.3092C19.623 20.5923 19.4511 20.8496 19.2343 21.0663C19.0176 21.2831 18.7603 21.455 18.4772 21.5723C18.194 21.6896 17.8905 21.7499 17.584 21.7499C17.2775 21.7499 16.974 21.6896 16.6909 21.5723C16.4077 21.455 16.1504 21.2831 15.9337 21.0663C15.717 20.8496 15.545 20.5923 15.4278 20.3092C15.4087 20.2633 15.3912 20.2169 15.3752 20.17H8.79303C8.77717 20.2164 8.75983 20.2624 8.74102 20.3079C8.62389 20.591 8.45214 20.8483 8.23558 21.0651C8.01902 21.2818 7.76188 21.4538 7.47886 21.5712C7.19583 21.6886 6.89245 21.7491 6.58605 21.7492C6.27965 21.7493 5.97622 21.6891 5.69309 21.572C5.40996 21.4549 5.15267 21.2831 4.93592 21.0665C4.6801 20.8109 4.48973 20.5021 4.37563 20.166H3C2.53587 20.166 2.09075 19.9816 1.76256 19.6534C1.43438 19.3252 1.25 18.8801 1.25 18.416V15V13C1.25 12.5858 1.58579 12.25 2 12.25C2.41421 12.25 2.75 12.5858 2.75 13V14.25H14.25V7V5C14.25 4.9337 14.2237 4.87011 14.1768 4.82322C14.1299 4.77634 14.0663 4.75 14 4.75H10C9.58579 4.75 9.25 4.41421 9.25 4ZM19.5547 7.9076L20.0918 9.25H18C17.5858 9.25 17.25 9.58579 17.25 10V14C17.25 14.4142 17.5858 14.75 18 14.75H21.25V18.333C21.25 18.3993 21.2237 18.4629 21.1768 18.5098C21.1299 18.5567 21.0663 18.583 21 18.583H19.7642C19.7565 18.5629 19.7485 18.5428 19.7403 18.5229C19.623 18.2397 19.4511 17.9824 19.2343 17.7657C19.0176 17.549 18.7603 17.377 18.4772 17.2598C18.194 17.1425 17.8905 17.0821 17.584 17.0821C17.2775 17.0821 16.974 17.1425 16.6909 17.2598C16.4077 17.377 16.1504 17.549 15.9337 17.7657C15.717 17.9824 15.545 18.2397 15.4278 18.5229C15.4077 18.5713 15.3893 18.6204 15.3725 18.67H8.79575C8.77894 18.6202 8.76042 18.5708 8.74022 18.5221C8.62284 18.2391 8.45086 17.982 8.23411 17.7654L8.23325 17.7646C7.79557 17.3277 7.20237 17.0825 6.58397 17.0828C5.96516 17.083 5.37181 17.3291 4.93445 17.7669C4.67934 18.0222 4.48949 18.3306 4.37562 18.666H3C2.9337 18.666 2.87011 18.6397 2.82322 18.5928C2.77634 18.5459 2.75 18.4823 2.75 18.416V15.75H15C15.4142 15.75 15.75 15.4142 15.75 15V7.75H19.323C19.4257 7.75 19.5169 7.81248 19.554 7.90596L19.5547 7.9076ZM21.25 12.385V13.25H18.75V10.75H20.6919L21.1604 11.921C21.2196 12.0698 21.25 12.2275 21.25 12.385ZM17.2649 18.6456C17.3661 18.6037 17.4745 18.5821 17.584 18.5821C17.6935 18.5821 17.802 18.6037 17.9031 18.6456C18.0043 18.6875 18.0962 18.7489 18.1737 18.8263L18.1737 18.8264C18.2511 18.9038 18.3125 18.9957 18.3545 19.0969C18.3964 19.1981 18.4179 19.3065 18.4179 19.416C18.4179 19.5255 18.3964 19.634 18.3545 19.7351C18.3125 19.8363 18.2511 19.9282 18.1737 20.0057C18.0962 20.0831 18.0043 20.1445 17.9031 20.1865C17.802 20.2284 17.6935 20.2499 17.584 20.2499C17.4745 20.2499 17.3661 20.2284 17.2649 20.1865C17.1637 20.1445 17.0718 20.0831 16.9943 20.0057C16.9169 19.9282 16.8555 19.8363 16.8136 19.7351C16.7717 19.634 16.7501 19.5255 16.7501 19.416C16.7501 19.3065 16.7717 19.1981 16.8136 19.0969C16.8555 18.9957 16.9169 18.9038 16.9943 18.8263C17.0718 18.7489 17.1637 18.6875 17.2649 18.6456ZM6.58464 18.5828C6.80562 18.5827 7.01759 18.6704 7.17392 18.8265C7.25132 18.9039 7.31274 18.9957 7.35466 19.0968C7.39658 19.1978 7.41818 19.3062 7.41822 19.4156C7.41827 19.525 7.39677 19.6334 7.35494 19.7345C7.31312 19.8356 7.25178 19.9275 7.17445 20.0049C7.09711 20.0823 7.00528 20.1437 6.90421 20.1856C6.80314 20.2275 6.69481 20.2491 6.58538 20.2492C6.47597 20.2492 6.36761 20.2277 6.2665 20.1859C6.16539 20.1441 6.07351 20.0827 5.99611 20.0054C5.83978 19.8492 5.7519 19.6373 5.7518 19.4163C5.7517 19.1954 5.83939 18.9834 5.99558 18.8271C6.15177 18.6707 6.36366 18.5829 6.58464 18.5828ZM2 3.25C1.58579 3.25 1.25 3.58579 1.25 4C1.25 4.41421 1.58579 4.75 2 4.75H7C7.41421 4.75 7.75 4.41421 7.75 4C7.75 3.58579 7.41421 3.25 7 3.25H2ZM1.25 7C1.25 6.58579 1.58579 6.25 2 6.25H5C5.41421 6.25 5.75 6.58579 5.75 7C5.75 7.41421 5.41421 7.75 5 7.75H2C1.58579 7.75 1.25 7.41421 1.25 7ZM2 9.25C1.58579 9.25 1.25 9.58579 1.25 10C1.25 10.4142 1.58579 10.75 2 10.75H3C3.41421 10.75 3.75 10.4142 3.75 10C3.75 9.58579 3.41421 9.25 3 9.25H2Z" fill="#858585"/>
</svg>
